<svg id="Layer_1" data-name="Layer 1" xmlns="http://www.w3.org/2000/svg" viewBox="0 0 150 150"><defs><style>.cls-1,.cls-3{fill:#b3b4b4;}.cls-2,.cls-3{isolation:isolate;}.cls-3{font-size:19.45px;font-family:Roboto-Bold, Roboto;font-weight:700;}.cls-4{letter-spacing:-0.01em;}.cls-5{letter-spacing:0em;}</style></defs><title>Artboard 1</title><path class="cls-1" d="M75,0H73.35c-1.46,0-2.91.1-4.34.22l.11,1.49C71.07,1.58,73,1.5,75,1.5V0Zm-12,1H63l-.08,0h0l-.07,0h0l-.11,0h0l-.12,0h0l-.23,0h0l-.12,0h0l-.09,0h-.26l-.09,0h0l-.06,0h-.87l-.09,0h0l-.08,0h0c-1.12.22-2.24.46-3.34.73l.35,1.46c1.9-.46,3.84-.85,5.77-1.16L63.05,1ZM51.4,3.79c-.51.17-1,.34-1.54.53h0l-.08,0h-.41l-.06,0h-.05l-.09,0h0c-.65.23-1.29.48-1.92.73h0l-.1,0h0L47,5.4h-.07l0,0h-.31l-.78.32.58,1.38c1.8-.76,3.65-1.46,5.51-2.07L51.4,3.79Zm-11,4.67-.72.38h0l0,0h-.19L39.3,9h0q-2.09,1.14-4.09,2.39l.8,1.27c1.65-1,3.37-2,5.1-2.92l-.7-1.33ZM30.21,14.84c-1.6,1.19-3.16,2.45-4.66,3.77l1,1.13c1.47-1.29,3-2.54,4.57-3.7l-.9-1.2Zm-9,7.9h0v0h0c-.88.9-1.73,1.82-2.56,2.77h0l-.06.06h-.12l0,0h0l0,0h0l0,0h-.05l-.06.06h0c-.35.41-.71.83-1.05,1.25l1.15.95c1.25-1.5,2.57-3,3.93-4.37L21.2,22.74ZM13.56,32q-1.72,2.44-3.25,5l1.3.76c1-1.68,2.06-3.34,3.18-4.94L13.56,32ZM7.48,42.31c-.49,1-1,2-1.41,3.08h0l0,.08H6v0H6v0H6l0,.07H6v0H6v0H6l0,.05h0v0h0v0h0v0h0v0h0v0h0v0h0v0h0v0h0v0h0v0h0l0,0h0v0h0v0h0v0h0v0h0v0h0v0h0v0h0v0h0v0h0v0h0v0h0v0h0v0h0v0h0v0h0v0h0v0h0v0h0v0h0v0h0v0h0v0h0v0h0v0h0l0,0h0v0h0v0h0l0,.08h0v0h0v0h0c-.07.15-.13.31-.19.47l1.4.54C7.19,46.53,8,44.72,8.83,43l-1.35-.65ZM3.13,53.48,2.8,54.62h0v0h0l0,.08h0v0h0v0h0v0h0v0h0v0h0v0h0v0h0v0h0v0h0v0h0v0h0v0h0v0h0l0,0h0v0h0l0,.06h0v0h0v0h0l0,.09h0v0h0l0,.11h0l0,.11h0c-.31,1.15-.58,2.31-.83,3.48l1.46.31c.41-1.91.9-3.82,1.46-5.69l-1.44-.43ZM.63,65.2h0v0h0v.06h0v0h0v0h0v0h0v0h0v.07h0v0h0C.45,66.63.34,67.73.25,68.83h0v0h0v.06h0v0h0v0h0v0h0v0h0v0h0v0h0v0h0v0h0v0h0v0h0c0,.63-.08,1.26-.11,1.89l1.49.07c.1-2,.28-3.92.53-5.85L.63,65.2Zm.9,11.93L0,77.18c0,.67.05,1.34.08,2h0v0h0v.06h0v0h0v.09h0v0h0v.06h0v0h0v0h0v.06h0v0h0v0h0v0h0v0h0v0h0v0h0v0h0v0h0v0h0v.05h0v0h0v0h0v0h0v0h0v0h0v0h0v0h0v0h0v0h0v0h0v0h0v0h0v0h0v0h0v0h0v0h0v0h0v0h0v0h0v0h0v0h0v0h0v0h0v0h0v0h0v0h0v0h0v0h0v0h0v0h0V81h0v0h0v0h0v.05h0v0h0v0h0v0h0v0h0v0h0v0h0v0h0v0h0v0h0v0h0v0h0v0h0v0h0v0h0v0h0v0h0v0h0v0h0v0h0v0h0v0h0v0h0v0h0v0h0v0h0v0h0v0h0v0h0v0h0v0h0v0h0v0h0v0h0v.06h0v0h0v.09h0c0,.21,0,.41.07.62L1.93,83c-.21-1.94-.34-3.91-.4-5.87ZM2.8,88.81l-1.48.28c.3,1.55.64,3.07,1,4.58h0v0h0l0,.06h0v0h0v0h0v0h0v0h0v0h0v0h0v0h0v0h0v0h0v0h0v0h0l0,.08h0v0h0l.18.66,1.45-.4c-.52-1.88-1-3.81-1.33-5.73Zm3.11,11.33-1.41.51c.29.8.6,1.59.91,2.38h0v0h0l0,.08h0v0h0v0h0v0h0v0h0v0h0l0,.06h0v0h0v0h0c.38.94.79,1.87,1.21,2.79l1.36-.62c-.81-1.78-1.56-3.61-2.23-5.44Zm4.89,10.68-1.31.73q1.11,2,2.32,3.86h0l.07.12h0l.07.1h0v0h0v0h0l0,0h0l0,0h.05v0h0v0h0v0h0l0,0h0v0h0v0h0v0h0l0,0h0v0h0v0h0v0h0v0h0v0h0l0,0h0v0h0v0h0l0,.06h0l0,0h0v0h0l0,.07h0v0l1.25-.84c-1.09-1.62-2.12-3.31-3.08-5Zm6.54,9.76-1.18.93c.11.15.23.29.34.43h0v0h0l0,0h0l0,0h0v0h0v0h0l0,0h0v0h.05l0,0h0l0,0h0q1.57,1.95,3.29,3.78l1.1-1c-1.33-1.43-2.62-2.93-3.83-4.46Zm8,8.61-1,1.1h.21l0,0h.08l0,0h0v0h0v0h0v0h0l0,0h0l0,0h0l.08.08h0l0,0h0c.93.84,1.89,1.65,2.86,2.44h0l0,0h0l.06,0h0l0,0h0v0h0l.06.05h0l0,0h0l0,0h0l0,0h0l0,0h0l0,0h.05l0,0h.07v0h0l0,0h.08l0,0h.06l.05,0h0v0h0l.07.06h0l.08.06h0v0h0l.93-1.19c-1.54-1.2-3-2.47-4.49-3.79Zm9.26,7.22-.82,1.25.42.28h0l.09.06h0l0,0h0l0,0h0l0,0h0v0h0l0,0h.2l0,0h0l.07,0h0q2,1.25,4,2.37l.73-1.31c-1.71-.94-3.41-2-5-3Zm10.3,5.66-.62,1.37c1.5.68,3,1.3,4.58,1.88h0l0,0H49l0,0h.17l.09,0h0l.49.18.5-1.42c-1.84-.65-3.67-1.39-5.45-2.19ZM56,146l-.39,1.45c1.92.51,3.88.95,5.86,1.31l.27-1.47c-1.93-.35-3.85-.79-5.74-1.29Zm11.56,2.11-.15,1.5.49,0h1.29c1.39.1,2.79.17,4.2.2l0-1.5c-1.95,0-3.93-.16-5.86-.36Zm17.6-.31c-1.93.27-3.9.46-5.85.57l.08,1.5h.56c.88-.06,1.76-.13,2.64-.22h1.76l1-.13-.2-1.49Zm11.47-2.53c-1.87.57-3.78,1.07-5.69,1.5l.33,1.46.27-.06h0l.06,0h.19c1.76-.4,3.51-.87,5.23-1.4l-.44-1.43Zm10.91-4.34c-1.75.87-3.55,1.67-5.37,2.39l.56,1.39c1.74-.69,3.45-1.45,5.13-2.26h0l.08,0h.19l0,0h0l-.67-1.35Zm10.09-6c-1.6,1.14-3.25,2.22-4.92,3.22l.76,1.29q2.58-1.54,5-3.29l-.87-1.22Zm9-7.55c-1.39,1.37-2.85,2.7-4.34,4l1,1.15c.48-.4,1-.81,1.42-1.22h0l.19-.17h0l0,0h0l.07-.06h0v0h0l.06-.06h0l0,0h0v0h0l0,0h0l0,0h0l0,0h.06l0,0h0v0h0l0,0h.08l0,0h0v0h0l0,0h.08l0,0h.08l0,0h.18l0,0h0v0h0l0,0h.07l0,0h0v0h0l0,0h.16l0,0h0l0,0h.07l0,0h.08l0,0h.08l0,0H127l0,0h.08l0,0h.07l0,0h.28l0,0h0v0h0v0h0l-1.06-1.07Zm7.69-8.89c-1.15,1.58-2.39,3.12-3.67,4.6l1.14,1c.79-.91,1.55-1.84,2.29-2.78h0l0,0h0v0h0v0h0l0,0h.06l0,0h0v0h0v0h0l0,0h0l.05-.06h0l0,0h0c.39-.51.78-1,1.16-1.54l-1.21-.89Zm6.18-10c-.89,1.74-1.86,3.46-2.89,5.12l1.28.79q1.35-2.19,2.55-4.47h0l.05-.08h0v0h0v0h0l0-.06h0v0h0v0h0l0,0h0v0h0v0h0v0h0v0h0l0,0h0v0h0v0h0v0h0l0-.07h0v0h0v0l-1.33-.69ZM145,97.63c-.6,1.86-1.28,3.71-2,5.52l1.38.57c.21-.49.41-1,.6-1.49h0l0-.1h0v0h0l0,0h0v0h0v0h0v0h0l0,0h0v0h0l0,0h0v0h0v0h0v0h0v0h0v0h0v0h0v0h0v0h0v0h0v0h0v0h0v0h0v0h0v0h0v0h0v0h0v0h0v0h0l0,0h0v0h0v0h0l0-.06h0v0h0v0h0l0,0h0v0h0v0h0v0h0l0-.06h0v0h0v0h0l0-.08h0v0h0v0h0l0-.06h0v0h0v0h0l0-.06h0v0h0l0-.05h0v0h0v0h0v0h0v0h0v0h0l0-.06h0v0h0v0h0v0h0v0h0v0h0v0h0v0h0v0h0v0h0v0h0v0h0v0h0v0h0v0h0v0h0v0h0v0h0v0h0v0h0v0h0l0,0h0v0h0v0h0l0-.08h0v0h0c.1-.29.19-.58.29-.88L145,97.63Zm2.7-11.43c-.29,1.93-.67,3.87-1.12,5.77l1.46.35q.69-2.91,1.14-5.89l-1.48-.23ZM150,74.47h-1.5V75c0,1.78-.06,3.59-.19,5.36l1.49.11c0-.1,0-.19,0-.28h0v-.06h0v0h0v0h0V80h0v0h0v0h0v0h0v0h0v0h0v0h0v0h0v0h0v0h0v0h0v0h0v0h0v0h0v0h0v0h0v0h0v0h0v0h0v-.06h0v0h0v0h0v0h0V79.1h0V79h0v0h0V79h0v-.06h0v0h0V78.8h0q0-.92.06-1.83h0v-.09h0v-.06h0v-.15h0V76.6h0v-.09h0v-.06h0v-.06h0v0h0V76.3h0v0h0v0h0v0h0v-.06h0v-.06h0v0h0V76h0v0h0v0h0v0h0v0h0v0h0v-.06h0v0h0v0h0v0h0v-.06h0v0h0v0h0v0h0v-.05h0v0h0v0h0v0h0v0h0v0h0v0h0v0h0v0h0v0h0v0h0v0h0v0h0v0h0v0h0v0h0v0h0v0h0v0h0v-.06h0v0h0v0h0v0h0v0h0v0h0v-.2Zm-1-11.94-1.48.24c.32,1.93.57,3.89.74,5.84l1.49-.13c0-.3-.05-.59-.08-.88h0v0h0v-.09h0v0h0v-.06h0v0h0v0h0v-.06h0v0h0v0h0v0h0v0h0v0h0v0h0v0h0v0h0v0h0v0h0v0h0v0h0v-.06h0v0h0v0h0v0h0v0h0v0h0v0h0v-.06h0v0h0v-.05h0v0h0v0h0v0h0v0h0v0h0v0h0v0h0v-.06h0v0h0v0h0v-.06h0v0h0v-.05h0v0h0v0h0V65.7h0v0h0v0h0v0h0v0h0v0h0v0h0v0h0v0h0v0h0v0h0v0h0v0h0v0h0v0h0v0h0v0h0v0h0v0h0v0h0v0h0v0h0v0h0v0h0v0h0v0h0v0h0v0h0v0h0v0h0v0h0v0h0v0h0v0h0v0h0v0h0v0h0v0h0v0h0v0h0v0h0v0h0v0h0v0h0v0h0v0h0v0h0v0h0v0h0v0h0v0h0v0h0v0h0v0h0v0h0v0h0v0h0v0h0v0h0v0h0v0h0v0h0v0h0v0h0v-.05h0v0h0v0h0v-.06h0v0h0v0h0v0h0v0h0v0h0v-.06h0v0h0l0-.09h0v0h0l0-.08h0v0h0l0-.09h0v0ZM146,50.9l-1.42.48c.63,1.85,1.19,3.75,1.67,5.64l1.45-.36,0-.18h0l0-.08h0v0h0l0-.09h0v0h0v0h0v-.06h0v0h0v0h0v0h0v0h0v0h0v0h0v0h0l0,0h0v0h0v0h0v0h0v0h0v0h0v0h0v0h0v0h0v0h0v0h0v0h0v0h0v0h0v0h0v0h0v0h0v0h0v0h0v0h0v0h0v0h0v0h0v0h0v0h0v-.05h0v0h0v0h0v0h0v0h0v0h0v0h0v-.06h0v0h0v0h0v0h0v0h0v0h0v0h0v0h0v0h0v0h0v0h0v0h0v0h0v0h0v0h0v0h0v0h0v0h0v0h0v0h0v0h0v0h0v0h0v0h0v0h0v0h0v0h0v0h0v0h0v0h0v0h0v0h0l0,0h0v0h0v0h0v0h0v0h0v0h0v0h0v0h0v0h0v0h0l0,0h0v0h0v0h0v0h0v0h0v0h0v0h0v0h0v0h0v0h0v0h0v0h0v0h0v0h0v0h0v0h0v0h0v0h0v0h0v0h0v0h0v0h0v0h0v0h0v0h0v0h0v0h0v0h0v0h0v0h0v0h0v0h0v0h0v0h0v0h0v0h0v0h0v0h0v0h0l0-.06h0v0h0l0-.08h0v0h0v0h0l0-.09h0c0-.07-.05-.15-.08-.22Zm-4.75-11-1.32.7c.91,1.72,1.77,3.51,2.54,5.3l1.38-.6c-.38-.89-.79-1.77-1.2-2.65h0l0-.08h0v0h0v0h0l0-.08h0v0h0v0h0l0-.06h0v0h0v0h0v0h0v0h0v0h0v0h0v0h0v0h0v0h0v0h0v0h0l0-.05h0v0h0v0h0v0h0l0,0h0v0h0v0h0v0h0l0-.05h0v0h0l0,0h0l-.05-.11h0l-.54-1.06h0l-.05-.1h0v0h0v0h0l0,0h0v0h0v0h0v0h0l0,0h0v0h0v0h0v0h0v0h0v0h0l0,0h0v0h0v0h0Zm-6.44-10.11-1.2.9c1.18,1.56,2.31,3.19,3.36,4.83l1.26-.81c-.68-1.07-1.4-2.13-2.14-3.17h0l0,0h0l-.06-.09h0l0,0h0l-.05-.07h0v0h0l0,0h0l0,0h0l0,0h0v0h0l0,0h0l0,0h0v0h0l0,0h0v0h0l0,0h0v0h-.06v0h0v0h0l0-.05h0v0h0v0h0v0h0l0-.05h0l-.61-.82Zm-8-8.95-1,1.08c1.41,1.35,2.78,2.77,4.08,4.23l1.12-1h0l0,0,0,0h0l0,0v0l0,0h0l0,0v0l0,0h0v0h0l0,0h0l0,0h0l0,0h0l0,0v0l0,0h0l0,0h0l0,0h0l0,0h0l0,0h0l0,0h0l0,0h0l0,0h0l0,0h0l0,0h0l0,0h0l0,0h0l0,0h0l0,0h0l0,0h0l0,0h0l0,0h0l0,0h0l0,0h0l0,0h0l0,0h0l0,0h0l0,0h0l0,0h0l-.09-.1h0l-.06-.07h0l0,0h0l-.09-.1h0l-.1-.1h0l-.09-.1h0l-.09-.1h0l-.1-.11h0l-.1-.1h0l-.09-.1h0l-.1-.1h0l-.1-.1h0l-.1-.1h0l0,0h0l-.06-.06h0l0,0h0l0,0h0l0,0h0l0,0h0l0,0h0l0,0h0l0,0h0l0,0h0l0,0h0l0,0h0l0,0h0l0,0h0l0,0h0l0,0h0l0,0h0l0,0h0l0,0h0l0,0h0l0,0h0l0,0v0l0,0h0l0,0,0,0h0l0,0h0v0h0l0,0h0l0,0h0l0,0h0l0,0h0l0,0h0l-.06-.06h0l-.75-.73Zm-9.29-7.58-.85,1.23c1.6,1.11,3.18,2.3,4.7,3.53l.94-1.16-.37-.3h0l-.09-.07h0l-.22-.18h0l0,0h0l-.09-.07h0l-.09-.07h0l-.07-.05h0l0,0h0l0,0h0l-.07-.05h0l0,0h0l-.07,0h0l-.07,0h0l0,0h0l0,0h0l-.06,0h0l0,0h0l0,0h0l0,0h0l0,0h-.09l0,0h0v0h-.05l0,0h0l0,0h-.2l0,0h-.08l0,0h-.07l0,0h0L120,15h0l0,0h0c-.76-.57-1.54-1.13-2.32-1.67Zm-10.38-6-.64,1.36c1.76.83,3.51,1.76,5.2,2.73l.75-1.29c-1.72-1-3.5-1.94-5.31-2.8ZM96,3l-.42,1.44c1.88.55,3.75,1.18,5.58,1.87l.53-1.4C99.84,4.18,97.94,3.55,96,3ZM84.27.57l-.18,1.49C86,2.3,88,2.62,89.89,3l.3-1.47-.89-.18h0l-.09,0H85.08l-.81-.1ZM75,0V1.5c1.07,0,2.16,0,3.23.07l.06-1.5-.87,0H77l-.85,0H75Z"/><path id="ic_insert_photo_24px" data-name="ic insert photo 24px" class="cls-1" d="M98.87,80.77V43.29a5.38,5.38,0,0,0-5.35-5.35H56a5.37,5.37,0,0,0-5.35,5.35V80.77A5.37,5.37,0,0,0,56,86.12H93.51A5.38,5.38,0,0,0,98.87,80.77ZM65.4,66.05l6.7,8.06L81.47,62l12,16.06H56Z"/><g id="Adicionar_foto" data-name="Adicionar foto" class="cls-2"><text class="cls-3" transform="translate(13 106.79)">Adicionar fo<tspan class="cls-4" x="106.72" y="0">t</tspan><tspan class="cls-5" x="113" y="0">o</tspan></text></g></svg>